<svg version="1.2" xmlns="http://www.w3.org/2000/svg" viewBox="0 0 1543 723" width="1543" height="723">
	<title>Fujitsu-Logo-svg</title>
	<style>
		.s0 { fill: #ffffff } 
	</style>
	<path id="path5600" class="s0" d="m84.7 427.4h78.1c14.8 0 28.7 10.8 29.4 25.1h0.7v-58.9h-108.2l-0.1-103.4h104.5c14.8 0 28.7 10.8 29.5 25.1h0.7l-0.1-58.9-219.2 0.1v0.6c14.8 0.8 25.8 16.4 25.8 31v270.9c0 14.5-11 30.2-25.8 31v0.7h110.6v-0.7c-14.8-0.8-26-16.5-26-31zm226.3 73.4c0 34.7 29 64.8 64.8 64.8 35.7 0 64.8-30.5 64.8-65.2v-212.3c0-14.6-11.1-30.2-25.9-31v-0.6l110.6-0.1v0.7c-14.7 0.8-25.9 16.4-25.9 31v206.3c0 66.3-55.1 105-123.4 105-68.4 0-124-38.7-124-105l0.1-206.3c0-14.6-11.1-30.2-25.8-31v-0.7h110.5v0.7c-14.7 0.9-25.9 16.5-25.9 31zm904.1-190.3c-18.5-29.8-60.8-26.2-60.8-26.2-69.2 0-66 52.6-66 52.6 0 0-4.7 26.4 30.1 44.4l69.1 36.6c66.8 35.8 58.9 86.5 58.9 86.5 0 0 3 94.9-136.6 94.9 0 0-40.6 1.2-63.6-7.4l-19.7-61.4h0.7c21.3 30.6 83.1 35 83.1 35 78.5-3.4 79.1-56.6 79.1-56.6 0 0 3.5-22.9-27.2-39.5l-68.9-36.6c-71.9-38.3-63.7-89.9-63.7-89.9 0 0-1.7-93.3 121.9-93.3 0 0 55.5 1.4 64.3 10.1v50.8zm-539.1-170.3c12.2 12 29.4 19.3 48 19.3 37.6 0 68.1-29.6 68.1-66.1 0-36.5-30.5-66.1-68.1-66.1 0 0-52.4-4.9-76 60.3l0.1-48.9c17.6-22.3 44.7-38.6 75.9-38.6 53.1 0 96 41.7 96 93.3 0 51.4-42.9 93.3-96 93.3-26.5 0-50.5-10.4-67.8-27.4l-33-36c-9.1-8.8-21.5-14.2-35.2-14.2-27.5 0-49.8 21.6-49.8 48.3 0 26.8 22.3 48.5 49.8 48.5 0 0 36.8 4.8 60-39.5l0.1 39.1c-14.2 16.8-35.9 27.5-60.1 27.5-42.9 0-77.8-33.8-77.8-75.6 0-41.7 34.9-75.4 77.8-75.4 21.4 0 40.8 8.3 54.9 22.1zm17.7 147.3c0-14.6-11.1-29.6-25.8-30.4v-0.6h110.4v0.6c-14.7 0.9-25.9 15.8-25.9 30.4v271.4c0 14.6 11.2 30.2 25.9 31.1v0.6h-110.4v-0.6c14.7-0.9 25.8-16.5 25.8-31.1zm-69.3 0.7c0-14.6 11.1-30.2 25.9-31v-0.7h-110.6v0.7c14.8 0.8 25.8 16.4 25.8 31l0.1 339.3c0 0-1.2 59.9-49.5 94.4l0.1 0.6c9.5-1.5 108.3-19.7 108.3-115.1zm153.4 28.5h0.7c15-26.1 38-26.4 38-26.4h59.9v268.8c0 14.5-11.1 30.1-25.8 30.9v0.7h110.7v-0.7c-14.9-0.8-26.1-16.5-26.1-30.9l0.1-268.8 50.1-0.1c15.1 0 27.2 11.8 27.6 26.5h0.6l18.4-60.3h-235.7zm551 184.2c0 34.8 28.9 64.8 64.7 64.8 35.7 0 64.8-30.4 64.8-65.2v-212.2c0-14.6-11.1-30.2-25.8-31v-0.7l110.6-0.1v0.8c-14.7 0.8-25.9 16.4-25.9 31v206.2c0 66.4-55.1 105.1-123.4 105.1-68.3 0-124-38.7-124-105.1l0.1-206.2c0-14.6-11.1-30.2-25.9-31v-0.8h110.6v0.8c-14.8 0.8-25.9 16.5-25.9 31z"/>
</svg>